<svg width="20" height="20" viewBox="0 0 20 20" fill="none" xmlns="http://www.w3.org/2000/svg">
<path d="M8 2C5.79086 2 4 3.79086 4 6C4 8.20914 5.79086 10 8 10C10.2091 10 12 8.20914 12 6C12 3.79086 10.2091 2 8 2ZM2 6C2 2.68629 4.68629 0 8 0C11.3137 0 14 2.68629 14 6C14 9.31371 11.3137 12 8 12C4.68629 12 2 9.31371 2 6ZM17 9C17.5523 9 18 9.44771 18 10V11H19C19.5523 11 20 11.4477 20 12C20 12.5523 19.5523 13 19 13H18V14C18 14.5523 17.5523 15 17 15C16.4477 15 16 14.5523 16 14V13H15C14.4477 13 14 12.5523 14 12C14 11.4477 14.4477 11 15 11H16V10C16 9.44771 16.4477 9 17 9ZM4.5 16C3.24054 16 2 17.2135 2 19C2 19.5523 1.55228 20 1 20C0.447715 20 0 19.5523 0 19C0 16.3682 1.89347 14 4.5 14H11.5C14.1065 14 16 16.3682 16 19C16 19.5523 15.5523 20 15 20C14.4477 20 14 19.5523 14 19C14 17.2135 12.7595 16 11.5 16H4.5Z" fill="#FF5924"/>
</svg>
