<?xml version="1.0" encoding="UTF-8"?>
<svg width="90px" height="90px" viewBox="0 0 90 90" version="1.1" xmlns="http://www.w3.org/2000/svg" xmlns:xlink="http://www.w3.org/1999/xlink">
    <!-- Generator: Sketch 55.1 (78136) - https://sketchapp.com -->
    <title>Streamr_Mark_Orange@1.5x</title>
    <desc>Created with Sketch.</desc>
    <g id="Downloadable-Assets-" stroke="none" stroke-width="1" fill="none" fill-rule="evenodd">
        <g id="Streamr-Mark-Orange" transform="translate(-59.000000, -59.000000)" fill="#FF5C00" fill-rule="nonzero">
            <path d="M115.258269,63.176681 L115.258269,60.5969738 C115.258617,60.1624745 115.081673,59.7466222 114.768306,59.4454668 C114.454938,59.1443115 114.032249,58.9838985 113.597868,59.0012786 C96.1379172,59.8643278 82.2185405,73.8939813 81.5020693,91.3513389 C81.5001472,91.7299303 81.6541823,92.0926339 81.9280042,92.3542368 C82.2018261,92.6158398 82.5712981,92.7532826 82.9496172,92.7342747 L85.6105176,92.7342747 C86.4319263,92.7416671 87.1162048,92.1067686 87.1698052,91.2875111 C87.9236818,76.8996918 99.4259445,65.4035171 113.821383,64.6500395 C114.917674,64.511746 115.268913,63.9107008 115.268913,63.182 L115.258269,63.176681 Z M91.5390036,92.7608762 L94.0615371,92.7608762 C94.8701855,92.7631985 95.5435167,92.1412769 95.6048594,91.335382 C96.3038944,81.5299695 104.134976,73.7439046 113.949106,73.096586 C114.720079,73.0425504 115.30391,72.3783794 115.258269,71.6072705 L115.258269,69.0382013 C115.248752,68.6073016 115.065236,68.1985754 114.749482,67.9050289 C114.433727,67.6114825 114.01259,67.4580838 113.581902,67.479739 C100.903772,68.318347 90.8056597,78.4088407 89.9637506,91.0800707 C89.9420839,91.510531 90.0955638,91.9314447 90.3892657,92.2470322 C90.6829677,92.5626197 91.0919103,92.7460383 91.5230382,92.7555507 L91.5390036,92.7608762 Z M115.25828,77.5113427 L115.25828,80.0910499 C115.251157,80.8623143 114.663838,81.5043548 113.895888,81.5803654 C108.770358,82.2077011 104.726857,86.2359118 104.082488,91.3566579 C103.984688,92.1443363 103.322519,92.7404267 102.528522,92.7555507 L100.298688,92.7555507 C99.085317,92.7555507 98.3562303,91.9683411 98.4467009,91.0587948 C99.2557539,83.0729002 105.575529,76.7586936 113.565937,75.9528804 C114.00201,75.9155534 114.433704,76.0631168 114.755577,76.3595282 C115.07745,76.6559397 115.259866,77.0739073 115.25828,77.5113427 L115.25828,77.5113427 Z M144.836838,115.196344 C144.107751,115.196344 143.506388,114.845291 143.368021,113.74958 C142.623461,99.3438226 131.103369,87.8321246 116.689834,87.0908328 C115.870142,87.0372608 115.234908,86.3533444 115.242304,85.5323705 L115.242304,82.8728785 C115.223286,82.4947597 115.360802,82.1254832 115.622543,81.8518063 C115.884285,81.5781293 116.24718,81.4241757 116.625972,81.4260968 C134.094649,82.1395118 148.13477,96.0522441 148.998486,113.504907 C149.017206,113.934475 148.861683,114.353415 148.56715,114.666817 C148.272616,114.980219 147.864002,115.161557 147.433877,115.169749 L144.836838,115.196344 Z M115.258269,91.4789945 C115.267734,91.0471224 115.451981,90.6375374 115.768912,90.3438299 C116.085843,90.0501223 116.508375,89.89739 116.939958,89.9205322 C129.614125,90.7613882 139.70863,100.848276 140.552788,113.515545 C140.575943,113.9469 140.42313,114.369208 140.129267,114.685971 C139.835403,115.002735 139.425602,115.186885 138.993501,115.196344 L136.423071,115.196344 C135.645714,115.241738 134.978656,114.648846 134.932967,113.871917 C134.280532,104.069002 126.494592,96.2485921 116.689834,95.5480173 C115.883512,95.4867071 115.261261,94.8137323 115.263591,94.0055119 L115.258269,91.4789945 Z M130.51055,115.191025 L127.924155,115.191025 C127.152482,115.183916 126.510102,114.596908 126.434051,113.829365 C125.805856,108.704824 121.77279,104.662932 116.647259,104.021159 C115.859164,103.923411 115.262758,103.261592 115.247614,102.468015 L115.247614,99.9574549 C115.245895,99.5190094 115.42903,99.1001164 115.752112,98.8035249 C116.075193,98.5069335 116.50833,98.3600825 116.94528,98.3989926 C124.935688,99.2048058 131.255463,105.519012 132.064516,113.504907 C132.101863,113.94075 131.954221,114.372215 131.657653,114.693918 C131.361085,115.01562 130.942896,115.197939 130.505229,115.196354 L130.51055,115.191025 Z M63.1471967,92.7502317 C63.8762834,92.7502317 64.4776469,93.1012846 64.6160137,94.1969953 C65.3612937,108.608539 76.8904004,120.122355 91.3101662,120.855743 C92.1298576,120.909315 92.7650922,121.593231 92.757696,122.414205 L92.757696,125.073697 C92.7767139,125.451816 92.6391983,125.821092 92.3774568,126.094769 C92.1157153,126.368446 91.7528196,126.5224 91.3740278,126.520479 C73.9053509,125.807064 59.8652301,111.894332 59.0015139,94.4416686 C58.9827937,94.0121005 59.138317,93.5931605 59.4328504,93.2797586 C59.7273838,92.9663568 60.1359984,92.7850188 60.5661234,92.7768266 L63.1471967,92.7502317 Z M92.7417306,116.446305 C92.7322665,116.878177 92.5480187,117.287762 92.2310878,117.58147 C91.9141569,117.875177 91.4916253,118.02791 91.0600415,118.004767 C78.3936072,117.162276 68.3040394,107.084869 67.4525335,94.4257116 C67.429379,93.9943563 67.5821922,93.5720483 67.8760553,93.2552852 C68.1699184,92.9385221 68.5797203,92.7543718 69.0118211,92.7449127 L71.5822509,92.7449127 C72.3596076,92.6995188 73.0266659,93.2924103 73.0723551,94.0693397 C73.7219296,103.872454 81.5056017,111.695138 91.3101662,112.398558 C92.1164879,112.459869 92.7387388,113.132843 92.7364088,113.941064 L92.7417306,116.446305 Z M77.4734843,92.7502317 L80.0545576,92.7502317 C80.8262304,92.7573405 81.468611,93.344349 81.5446618,94.1118916 C82.1728564,99.2364328 86.2059229,103.278324 91.3314534,103.920098 C92.1195489,104.017846 92.715955,104.679665 92.731087,105.473241 L92.731087,107.989121 C92.7281033,108.422771 92.5444716,108.835569 92.2243343,109.128284 C91.904197,109.420999 91.4765075,109.567158 91.0440761,109.531626 C83.0536681,108.725813 76.7338932,102.411606 75.9248403,94.4257116 C75.8923392,93.9943534 76.0406824,93.5688997 76.3343736,93.2511548 C76.6280649,92.9334099 77.0406791,92.7519631 77.4734843,92.7502317 L77.4734843,92.7502317 Z M92.7364088,144.839041 C92.7364088,144.110341 93.0876476,143.509295 94.1839386,143.371002 C108.597473,142.62971 120.117566,131.118012 120.862126,116.712254 C120.915726,115.892997 121.600005,115.258098 122.421413,115.265491 L125.082314,115.265491 C125.460633,115.246483 125.830105,115.383926 126.103927,115.645529 C126.377748,115.907132 126.531784,116.269835 126.529861,116.648427 C125.813174,134.107722 111.890772,148.138099 94.4287414,148.998487 C93.9989458,149.017197 93.5797839,148.861756 93.2662161,148.567379 C92.9526483,148.273001 92.7712143,147.864603 92.7630178,147.434706 L92.7364088,144.839041 Z M116.466318,115.260172 C116.898419,115.269631 117.308221,115.453781 117.602084,115.770544 C117.895947,116.087307 118.04876,116.509615 118.025606,116.940971 C117.181448,129.608239 107.086943,139.695127 94.412776,140.535983 C93.9811922,140.559126 93.5586606,140.406393 93.2417297,140.112686 C92.9247989,139.818978 92.7405511,139.409393 92.731087,138.977521 L92.731087,136.408452 C92.685669,135.631507 93.2788744,134.964801 94.0562153,134.919136 C103.864521,134.269906 111.691348,126.490353 112.395141,116.690978 C112.456483,115.885083 113.129814,115.263162 113.938463,115.265491 L116.466318,115.260172 Z M92.747042,130.50438 L92.747042,127.924672 C92.7541649,127.153408 93.3414843,126.511368 94.1094333,126.435357 C99.2349641,125.808021 103.278465,121.779811 103.922834,116.659065 C104.020634,115.871386 104.682803,115.275296 105.4768,115.260172 L107.706634,115.260172 C108.920005,115.260172 109.649091,116.047381 109.558621,116.956928 C108.749568,124.942822 102.429793,131.257029 94.439385,132.062842 C94.0033113,132.100169 93.5716176,131.952606 93.2497447,131.656194 C92.9278718,131.359783 92.745456,130.941815 92.747042,130.50438 L92.747042,130.50438 Z M92.7470524,144.839041 C92.7470524,144.110341 93.0982912,143.509295 94.1945822,143.371002 C108.608117,142.62971 120.128209,131.118012 120.872769,116.712254 C120.92637,115.892997 121.610648,115.258098 122.432057,115.265491 L125.092957,115.265491 C125.471276,115.246483 125.840748,115.383926 126.11457,115.645529 C126.388392,115.907132 126.542427,116.269835 126.540505,116.648427 C125.823818,134.107722 111.901416,148.138099 94.439385,148.998487 C94.0095894,149.017197 93.5904275,148.861756 93.2768597,148.567379 C92.9632919,148.273001 92.7818579,147.864603 92.7736614,147.434706 L92.7470524,144.839041 Z M116.476962,115.260172 C116.909063,115.269631 117.318865,115.453781 117.612728,115.770544 C117.906591,116.087307 118.059404,116.509615 118.036249,116.940971 C117.192091,129.608239 107.097587,139.695127 94.4234196,140.535983 C93.9918358,140.559126 93.5693042,140.406393 93.2523733,140.112686 C92.9354425,139.818978 92.7511947,139.409393 92.7417306,138.977521 L92.7417306,136.408452 C92.6963126,135.631507 93.289518,134.964801 94.0668589,134.919136 C103.875165,134.269906 111.701991,126.490353 112.405784,116.690978 C112.467127,115.885083 113.140458,115.263162 113.949106,115.265491 L116.476962,115.260172 Z M92.747042,130.50438 L92.747042,127.924672 C92.7541649,127.153408 93.3414843,126.511368 94.1094333,126.435357 C99.2349641,125.808021 103.278465,121.779811 103.922834,116.659065 C104.020634,115.871386 104.682803,115.275296 105.4768,115.260172 L107.706634,115.260172 C108.920005,115.260172 109.649091,116.047381 109.558621,116.956928 C108.749568,124.942822 102.429793,131.257029 94.439385,132.062842 C94.0033113,132.100169 93.5716176,131.952606 93.2497447,131.656194 C92.9278718,131.359783 92.745456,130.941815 92.747042,130.50438 L92.747042,130.50438 Z" id="Streamr_Mark_Orange"></path>
        </g>
    </g>
</svg>