<?xml version="1.0" encoding="UTF-8"?>
<svg width="280px" height="137px" viewBox="0 0 280 137" version="1.1" xmlns="http://www.w3.org/2000/svg" xmlns:xlink="http://www.w3.org/1999/xlink">
    <!-- Generator: Sketch 55.1 (78136) - https://sketchapp.com -->
    <title>Streamr_Primary_Lockup_Reversed@3x</title>
    <desc>Created with Sketch.</desc>
    <g id="Downloadable-Assets-" stroke="none" stroke-width="1" fill="none" fill-rule="evenodd">
        <g id="Stream-Primary-Lockup-Reversed" transform="translate(-32.000000, -35.000000)" fill-rule="nonzero">
            <g id="Streamr_Primary_Lockup_Reversed" transform="translate(32.000000, 35.000000)">
                <g id="Streamr" transform="translate(109.205206, 101.342180)" fill="#FFFFFF">
                    <path d="M0.88706019,29.4296047 L5.63982797,24.6554299 C7.70185201,27.0870336 10.7298527,28.476748 13.9096439,28.4508989 C17.4108495,28.4508989 19.1060033,26.8595073 19.1060033,24.4724199 C19.1060033,22.6661904 18.3138754,21.3373784 15.2800253,20.9077027 L12.0164581,20.478027 C5.06949584,19.5788907 1.90098398,16.1573988 1.90098398,10.6034422 C1.90098398,4.66755154 6.53493257,0.537890358 14.2819441,0.537890358 C19.2485864,0.537890358 22.9953516,2.20089457 25.7202718,5.19271076 L20.9675041,10.0384982 C19.2220703,7.91489901 16.575663,6.75114252 13.8383524,6.90345672 C10.6223129,6.90345672 9.08558461,8.1367852 9.08558461,10.1339816 C9.08558461,12.4096716 10.2658553,13.2690231 13.0462244,13.6986988 L16.3097916,14.223858 C23.0666432,15.3139613 26.3302104,18.3535192 26.3302104,24.0507011 C26.3302104,30.4162675 21.6962618,34.8323791 13.4739735,34.8323791 C7.64391172,34.7925943 3.73079958,32.5566892 0.88706019,29.4296047 Z" id="Shape"></path>
                    <path d="M38.8933599,34.2196934 C34.0693006,34.2196934 31.5186485,31.7052947 31.5186485,26.9549908 L31.5186485,14.7569742 L28.0174429,14.7569742 L28.0174429,9.29850106 L29.7680457,9.29850106 C31.6612316,9.29850106 32.2236424,8.35162307 32.2236424,6.64087711 L32.2236424,2.55895768 L38.5131385,2.55895768 L38.5131385,9.29850106 L43.4322531,9.29850106 L43.4322531,14.7569742 L38.5131385,14.7569742 L38.5131385,28.7612202 L43.0520317,28.7612202 L43.0520317,34.2196934 L38.8933599,34.2196934 Z" id="Shape"></path>
                    <path d="M46.6482926,34.2196934 L46.6482926,9.29054411 L53.6348613,9.29054411 L53.6348613,14.7012755 L53.8724997,14.7012755 C54.4428318,11.9481681 56.3280963,9.29054411 60.2095234,9.29054411 L61.4373217,9.29054411 L61.4373217,15.8391205 L59.6867189,15.8391205 C55.6231025,15.8391205 53.6348613,16.7382568 53.6348613,19.6345894 L53.6348613,34.2117364 L46.6482926,34.2196934 Z" id="Shape"></path>
                    <path d="M62.7680967,21.7352263 C62.7680967,13.849881 66.9267685,8.72560009 74.3965352,8.72560009 C82.6188235,8.72560009 85.9299183,14.7092325 85.9299183,21.4567328 L85.9299183,23.5494128 L70.000225,23.5494128 L70.000225,23.9313467 C70.000225,27.2096134 71.7508278,29.2943364 75.4817505,29.2943364 C78.412624,29.2943364 80.0206437,27.9177827 81.5811358,26.3025202 L85.0823414,30.6708901 C82.8643831,33.2330306 79.2205945,34.8005513 74.6817013,34.8005513 C67.1010367,34.7925943 62.7680967,29.7080982 62.7680967,21.7352263 Z M70.000225,19.0298606 L70.000225,19.4117946 L78.7136326,19.4117946 L78.7136326,18.9502911 C78.7136326,15.9107331 77.3432512,13.8657949 74.5549608,13.8657949 C71.7666704,13.8657949 70.000225,15.942561 70.000225,19.0298606 L70.000225,19.0298606 Z" id="Shape"></path>
                    <path d="M108.054052,34.2196934 C105.550928,34.2196934 103.752798,32.5089474 103.301285,29.8513235 L103.016119,29.8513235 C102.223991,33.0818484 99.5149129,34.7925943 95.7364625,34.7925943 C90.7698202,34.7925943 88.0290574,31.8485199 88.0290574,27.5278917 C88.0290574,22.2603856 92.0926739,19.7380299 98.667336,19.7380299 L102.627976,19.7380299 L102.627976,18.1466383 C102.627976,15.7595509 101.447705,14.1681593 98.5168317,14.1681593 C96.3434584,14.1294301 94.312148,15.2495638 93.1778892,17.1122338 L89.0192174,13.4122483 C91.0074586,10.4681739 93.8432767,8.63807355 99.0396361,8.63807355 C106.034126,8.63807355 109.630387,11.8685985 109.630387,17.7567474 L109.630387,28.6816506 L111.943401,28.6816506 L111.943401,34.1401238 L108.054052,34.2196934 Z M102.620055,26.6685403 L102.620055,23.7244658 L99.2139043,23.7244658 C96.5206692,23.7244658 95.1027602,24.7190856 95.1027602,26.525315 L95.1027602,27.2414413 C95.1027602,29.0476707 96.2830308,29.8990652 98.3663274,29.8990652 C100.679341,29.8990652 102.612133,28.9521872 102.612133,26.6764972 L102.620055,26.6685403 Z" id="Shape"></path>
                    <path d="M114.953487,34.2196934 L114.953487,9.29054411 L121.947977,9.29054411 L121.947977,13.5156888 L122.233143,13.5156888 C123.092049,10.5715604 125.844034,8.5993509 128.894939,8.74151401 C132.097073,8.58591475 134.980391,10.6764063 135.841901,13.7782684 L136.016169,13.7782684 C136.911274,10.9774192 139.79462,8.74151401 143.580992,8.74151401 C148.333759,8.74151401 151.003231,12.3539729 151.003231,18.6160988 L151.003231,34.2356073 L143.937449,34.2356073 L143.937449,19.1730859 C143.937449,15.942561 142.852234,14.3989111 140.531299,14.3989111 C138.448002,14.3989111 136.420155,15.5844978 136.420155,18.0511548 L136.420155,34.1958225 L129.425665,34.1958225 L129.425665,19.1730859 C129.425665,15.942561 128.292922,14.3989111 126.019515,14.3989111 C123.983746,14.3989111 121.90837,15.5844978 121.90837,18.0511548 L121.90837,34.1958225 L114.953487,34.2196934 Z" id="Shape"></path>
                    <path d="M155.08269,34.2196934 L155.08269,9.29054411 L162.077179,9.29054411 L162.077179,14.7012755 L162.314818,14.7012755 C162.88515,11.9481681 164.770415,9.29054411 168.651842,9.29054411 L169.87964,9.29054411 L169.87964,15.8391205 L168.129037,15.8391205 C164.065421,15.8391205 162.077179,16.7382568 162.077179,19.6345894 L162.077179,34.2117364 L155.08269,34.2196934 Z" id="Shape"></path>
                </g>
                <path d="M84.419399,7.18431368 L84.419399,3.32518907 C84.4199169,2.67519793 84.1565426,2.05310176 83.6901082,1.60258709 C83.2236739,1.15207242 82.5945187,0.912101823 81.9479597,0.938101685 C55.9595479,2.22918399 35.241133,23.2169073 34.1746953,49.33232 C34.1718343,49.8986754 34.4011093,50.4412635 34.8086818,50.8326096 C35.2162543,51.2239557 35.766198,51.4295639 36.3293103,51.401129 L40.2899501,51.401129 C41.5125829,51.4121877 42.5311031,50.4624085 42.6108851,49.2368365 C43.7329991,27.7133134 60.85364,10.5155591 82.2806535,9.38839103 C83.9124371,9.18151013 84.4352415,8.28237388 84.4352415,7.19227064 L84.419399,7.18431368 Z M49.1142557,51.4409236 L52.8689422,51.4409236 C54.0725818,51.4443976 55.0748073,50.5140313 55.1661133,49.3084491 C56.2065979,34.6399981 67.8628379,22.9923994 82.4707642,22.0240403 C83.618325,21.9432054 84.4873329,20.9496357 84.419399,19.796092 L84.419399,15.9528813 C84.4052327,15.3082751 84.1320772,14.6968392 83.6620895,14.2577071 C83.1921018,13.8185749 82.5652575,13.5890974 81.9241959,13.6214927 C63.0533256,14.876012 48.0227037,29.9709315 46.7695569,48.9265151 C46.7373069,49.5704641 46.9657554,50.2001318 47.4029186,50.6722364 C47.8400817,51.1443409 48.4487759,51.4187267 49.0904918,51.4329569 L49.1142557,51.4409236 Z M84.4194144,28.6283154 L84.4194144,32.48744 C84.4088122,33.6412164 83.5346117,34.6016798 82.3915514,34.7153882 C74.7624114,35.6538538 68.7438285,41.6798737 67.7847118,49.3402769 C67.6391408,50.5186079 66.6535289,51.4103321 65.4716981,51.4329569 L62.1526819,51.4329569 C60.3466302,51.4329569 59.2614149,50.2553271 59.3960766,48.8946873 C60.6003183,36.9481523 70.0070411,27.5023866 81.9004321,26.2969267 C82.5495096,26.2410872 83.1920678,26.4618353 83.6711623,26.9052533 C84.1502568,27.3486714 84.421775,27.9739319 84.4194144,28.6283154 L84.4194144,28.6283154 Z M128.445871,85.0033625 C127.360656,85.0033625 126.465551,84.4782032 126.259598,82.8390699 C125.151351,61.2887119 108.004172,44.0677355 86.5502232,42.9587966 C85.3301466,42.8786554 84.3846261,41.8555476 84.3956351,40.627408 L84.3956351,36.648929 C84.3673277,36.0832804 84.572014,35.5308596 84.9616054,35.1214513 C85.3511967,34.7120431 85.8913519,34.4817354 86.4551678,34.4846093 C112.456569,35.5518458 133.354706,56.3646602 134.640312,82.4730498 C134.668176,83.1156642 134.436686,83.7423793 133.998285,84.2112143 C133.559885,84.6800492 132.951679,84.9513225 132.311456,84.9635777 L128.445871,85.0033625 Z M84.419399,49.523287 C84.4334859,48.8772259 84.7077311,48.2645054 85.1794696,47.8251323 C85.651208,47.3857591 86.2801288,47.1572785 86.9225233,47.1918983 C105.787495,48.4497805 120.812747,63.5393061 122.069241,82.4889638 C122.103706,83.1342518 121.87625,83.7660052 121.438846,84.2398684 C121.001443,84.7137317 120.39147,84.9892121 119.748306,85.0033625 L115.922328,85.0033625 C114.765265,85.0712697 113.772376,84.184331 113.70437,83.0220799 C112.733248,68.3573656 101.1442,56.6583878 86.5502232,55.6103598 C85.3500467,55.5186426 84.4238521,54.5119029 84.4273203,53.302842 L84.419399,49.523287 Z M107.121786,84.9954055 L103.272045,84.9954055 C102.123442,84.984771 101.167285,84.1066331 101.054086,82.9584243 C100.119045,75.2923438 94.1159924,69.2458582 86.486853,68.2857938 C85.3138055,68.1395671 84.4260797,67.149516 84.4035383,65.9623621 L84.4035383,62.2066779 C84.4009801,61.5507834 84.6735697,60.9241385 85.1544627,60.4804512 C85.6353556,60.0367638 86.2800623,59.8170814 86.9304446,59.8752892 C98.8238355,61.0807491 108.230558,70.5265149 109.4348,82.4730498 C109.490389,83.1250509 109.270631,83.7705033 108.829201,84.2517556 C108.387771,84.733008 107.765314,85.0057492 107.113865,85.003378 L107.121786,84.9954055 Z M6.85422881,51.4249999 C7.93944412,51.4249999 8.83454871,51.9501591 9.04050199,53.5892925 C10.1498204,75.1483063 27.3104174,92.3724502 48.7736406,93.4695657 C49.9937173,93.549707 50.9392377,94.5728147 50.9282287,95.8009544 L50.9282287,99.7794334 C50.9565361,100.345082 50.7518498,100.897503 50.3622585,101.306911 C49.9726671,101.716319 49.4325119,101.946627 48.868696,101.943753 C22.8672951,100.876517 1.96915761,80.0637022 0.683551972,53.9553125 C0.655687695,53.3126982 0.887177715,52.685983 1.32557841,52.2171481 C1.7639791,51.7483132 2.37218499,51.4770399 3.01240818,51.4647847 L6.85422881,51.4249999 Z M50.9044649,86.8732476 C50.8903779,87.5193087 50.6161327,88.1320291 50.1443943,88.5714023 C49.6726558,89.0107755 49.0437351,89.2392561 48.4013405,89.2046363 C29.5478785,87.9443081 14.5299753,72.8689648 13.262544,53.9314417 C13.2280795,53.2861536 13.4555356,52.6544002 13.8929386,52.180537 C14.3303417,51.7066737 14.9403148,51.4311933 15.583479,51.4170429 L19.409457,51.4170429 C20.5665204,51.3491358 21.559409,52.2360744 21.6274153,53.3983255 C22.59428,68.0633385 34.1799531,79.7657174 48.7736406,80.8180026 C49.9738171,80.9097198 50.9000117,81.9164595 50.8965436,83.1255204 L50.9044649,86.8732476 Z M28.1783136,51.4249999 L32.0201342,51.4249999 C33.1687372,51.4356344 34.1248939,52.3137723 34.2380925,53.4619811 C35.1731341,61.1280616 41.1761863,67.1745472 48.8053257,68.1346116 C49.9783732,68.2808383 50.866099,69.2708895 50.8886223,70.4580433 L50.8886223,74.2216844 C50.8841812,74.8704056 50.6108531,75.4879327 50.134342,75.9258211 C49.6578309,76.3637095 49.0212328,76.5823564 48.3775766,76.5292022 C36.4841857,75.3237424 27.0774629,65.8779766 25.8732212,53.9314417 C25.8248447,53.2861494 26.0456474,52.64969 26.4827946,52.1743581 C26.9199419,51.6990261 27.534101,51.42759 28.1783136,51.4249999 L28.1783136,51.4249999 Z M50.8965436,129.347489 C50.8965436,128.257386 51.419348,127.35825 53.0511316,127.151369 C74.5050803,126.04243 91.6522599,108.821453 92.7605064,87.2710955 C92.8402884,86.0455235 93.8588086,85.0957443 95.0814414,85.1068029 L99.0420812,85.1068029 C99.6051935,85.078368 100.155137,85.2839762 100.56271,85.6753223 C100.970282,86.0666685 101.199557,86.6092565 101.196696,87.175612 C100.129937,113.293924 79.407019,134.282729 53.4155105,135.56983 C52.7757776,135.59782 52.1518726,135.365287 51.6851398,134.924912 C51.2184071,134.484537 50.9483502,133.873591 50.93615,133.230485 L50.8965436,129.347489 Z M86.2175295,85.098846 C86.8606937,85.1129963 87.4706667,85.3884768 87.9080698,85.86234 C88.3454728,86.3362032 88.572929,86.9679567 88.5384644,87.6132447 C87.2819702,106.562902 72.2567184,121.652428 53.3917467,122.91031 C52.7493521,122.94493 52.1204313,122.716449 51.6486929,122.277076 C51.1769544,121.837703 50.9027092,121.224983 50.8886223,120.578921 L50.8886223,116.735711 C50.8210196,115.573436 51.7039812,114.576075 52.8610209,114.507763 C67.4602773,113.536543 79.1101837,101.898687 80.1577505,87.2392677 C80.2490565,86.0336855 81.251282,85.1033192 82.4549216,85.1068029 L86.2175295,85.098846 Z M50.9123707,107.903487 L50.9123707,104.044363 C50.9229729,102.890586 51.7971734,101.930123 52.9402337,101.816415 C60.5693737,100.877949 66.5879567,94.8519291 67.5470734,87.1915259 C67.6926444,86.0131949 68.6782562,85.1214707 69.860087,85.098846 L73.1791032,85.098846 C74.9851549,85.098846 76.0703702,86.2764757 75.9357085,87.6371155 C74.7314668,99.5836505 65.324744,109.029416 53.4313531,110.234876 C52.7822755,110.290716 52.1397173,110.069968 51.6606228,109.626549 C51.1815284,109.183131 50.9100101,108.557871 50.9123707,107.903487 L50.9123707,107.903487 Z M50.9123861,129.347489 C50.9123861,128.257386 51.4351906,127.35825 53.0669742,127.151369 C74.5209229,126.04243 91.6681025,108.821453 92.776349,87.2710955 C92.8561309,86.0455235 93.8746511,85.0957443 95.0972839,85.1068029 L99.0579237,85.1068029 C99.6210361,85.078368 100.17098,85.2839762 100.578552,85.6753223 C100.986125,86.0666685 101.2154,86.6092565 101.212539,87.175612 C100.14578,113.293924 79.4228615,134.282729 53.4313531,135.56983 C52.7916202,135.59782 52.1677151,135.365287 51.7009824,134.924912 C51.2342497,134.484537 50.9641928,133.873591 50.9519925,133.230485 L50.9123861,129.347489 Z M86.233372,85.098846 C86.8765362,85.1129963 87.4865093,85.3884768 87.9239123,85.86234 C88.3613154,86.3362032 88.5887715,86.9679567 88.554307,87.6132447 C87.2978127,106.562902 72.272561,121.652428 53.4075892,122.91031 C52.7651946,122.94493 52.1362739,122.716449 51.6645354,122.277076 C51.192797,121.837703 50.9185518,121.224983 50.9044649,120.578921 L50.9044649,116.735711 C50.8368622,115.573436 51.7198238,114.576075 52.8768635,114.507763 C67.4761198,113.536543 79.1260263,101.898687 80.1735931,87.2392677 C80.2648991,86.0336855 81.2671246,85.1033192 82.4707642,85.1068029 L86.233372,85.098846 Z M50.9123707,107.903487 L50.9123707,104.044363 C50.9229729,102.890586 51.7971734,101.930123 52.9402337,101.816415 C60.5693737,100.877949 66.5879567,94.8519291 67.5470734,87.1915259 C67.6926444,86.0131949 68.6782562,85.1214707 69.860087,85.098846 L73.1791032,85.098846 C74.9851549,85.098846 76.0703702,86.2764757 75.9357085,87.6371155 C74.7314668,99.5836505 65.324744,109.029416 53.4313531,110.234876 C52.7822755,110.290716 52.1397173,110.069968 51.6606228,109.626549 C51.1815284,109.183131 50.9100101,108.557871 50.9123707,107.903487 L50.9123707,107.903487 Z" id="rounded-logo-copy-2" fill="#FF5C00"></path>
            </g>
        </g>
    </g>
</svg>